<svg xmlns="http://www.w3.org/2000/svg" width="1000" height="800" viewBox="0 0 1000 800">
<defs><filter id="s" x="-50%" y="-50%" width="200%" height="200%"><feDropShadow dx="10" dy="24" stdDeviation="18" flood-color="#542b20" flood-opacity=".28"/></filter><filter id="s2" x="-30%" y="-30%" width="180%" height="180%"><feDropShadow dx="5" dy="8" stdDeviation="7" flood-color="#542b20" flood-opacity=".22"/></filter><pattern id="grain" width="4" height="4" patternUnits="userSpaceOnUse"><circle cx="1" cy="1" r=".5" fill="#fff" opacity=".05"/></pattern></defs>
<path fill="#b86149" d="M0 0h1000v800H0z"/><path fill="url(#grain)" d="M0 0h1000v800H0z"/>
<path fill="#ab543e" opacity=".5" d="m0 665 1000-202v337H0z"/>
<g transform="translate(585 89) rotate(13)" filter="url(#s)"><path fill="#ece4d5" d="M0 0h345v472H0z"/><text x="28" y="42" fill="#542f24" font-family="Arial,sans-serif" font-size="11" letter-spacing="2">SPACES FOR LIVING.</text><path stroke="#9c877a" stroke-width="1" d="M28 66h289M28 400h289"/><g fill="none" stroke="#bca795" stroke-width="1"><path d="M28 100h289v265H28zM63 100v265M98 100v265M133 100v265M168 100v265M203 100v265M238 100v265M273 100v265M28 135h289M28 170h289M28 205h289M28 240h289M28 275h289M28 310h289M28 345h289"/></g><path d="M96 323V138h177v46H149v32h96v46h-96v61z" fill="#ad553d"/><text x="28" y="438" fill="#542f24" font-family="Arial,sans-serif" font-size="23" letter-spacing="-1">forma.</text><text x="252" y="435" fill="#542f24" font-family="Arial,sans-serif" font-size="8">EST. 2026</text></g>
<g transform="translate(111 262) rotate(-12)" filter="url(#s)"><path fill="#f3eee4" d="M0 0h550v340H0z"/><text x="36" y="45" fill="#70513f" font-family="Arial,sans-serif" font-size="9" letter-spacing="2">ARCHITECTURE &amp; INTERIORS</text><text x="31" y="220" fill="#914e38" font-family="Arial,sans-serif" font-size="141" font-weight="700" letter-spacing="-10">forma.</text><path stroke="#c8b9a6" d="M36 265h478"/><text x="36" y="299" fill="#70513f" font-family="Arial,sans-serif" font-size="9" letter-spacing="1">A NEW PERSPECTIVE.</text><path d="M483 291h21m-8-8 8 8-8 8" stroke="#914e38" fill="none" stroke-width="2"/></g>
<g transform="translate(722 507) rotate(13)" filter="url(#s2)"><path fill="#794130" d="M0 0h135v160H0z"/><path fill="#dca786" d="M31 125V34h78v23H55v15h43v23H55v30z"/></g>
<text x="57" y="747" fill="#edd1bf" font-family="Arial,sans-serif" font-size="9" letter-spacing="2.5">FORM. FUNCTION. FEELING.</text><text x="883" y="747" fill="#edd1bf" font-family="Arial,sans-serif" font-size="9" letter-spacing="2">01 — 26</text>
</svg>
